<svg class="svg-icon" style="width: 1em; height: 1em;vertical-align: middle;fill: currentColor;overflow: hidden;" viewBox="0 0 1024 1024" version="1.1" xmlns="http://www.w3.org/2000/svg"><path d="M714.666667 595.626667c10.666667 5.546667 17.493333 8.533333 19.626666 12.8 2.56 4.693333 1.706667 26.026667-8.96 50.346666-8.533333 23.893333-52.906667 46.933333-72.533333 47.786667-19.626667 0.853333-20.053333 15.36-126.293333-31.146667-106.24-46.506667-170.24-160-175.36-167.253333-5.12-7.253333-40.96-58.88-39.253334-111.36 2.133333-52.053333 29.44-76.8 40.533334-87.04 10.24-11.093333 21.76-12.373333 29.013333-11.093333h20.053333c6.4 0 15.36-2.56 23.466667 19.2l29.44 79.786666c2.56 5.546667 4.266667 11.946667 0.426667 18.773334l-11.52 17.493333-16.64 17.92c-5.12 5.12-11.093333 10.666667-5.12 21.333333 5.12 11.093333 26.453333 46.506667 56.32 75.946667 38.826667 37.546667 72.96 49.92 83.2 55.466667 10.24 5.973333 16.64 5.12 23.04-1.706667l34.56-40.106667c8.106667-10.666667 14.933333-8.106667 24.746666-4.693333l71.253334 37.546667M512 85.333333a426.666667 426.666667 0 0 1 426.666667 426.666667 426.666667 426.666667 0 0 1-426.666667 426.666667c-84.053333 0-162.133333-24.32-228.266667-66.133334L85.333333 938.666667l66.133334-198.4A425.344 425.344 0 0 1 85.333333 512 426.666667 426.666667 0 0 1 512 85.333333m0 85.333334a341.333333 341.333333 0 0 0-341.333333 341.333333c0 73.386667 23.04 141.226667 62.293333 196.693333L192 832l123.306667-40.96A339.2 339.2 0 0 0 512 853.333333a341.333333 341.333333 0 0 0 341.333333-341.333333 341.333333 341.333333 0 0 0-341.333333-341.333333z" fill="" /></svg>